<svg width="118.38" height="122.87999999999998" xmlns="http://www.w3.org/2000/svg" data-name="Layer 1">

 <title>screen-recorder</title>
 <g>
  <title>Layer 1</title>
  <path id="svg_1" d="m118.38,77l0,41.87a4,4 0 0 1 -4,4l-39.88,0l0,-9.27l34.63,0l0,-36.6l9.25,0zm-36.85,13.36l5,1.49a9.13,9.13 0 0 1 -1.57,3.49a6.88,6.88 0 0 1 -2.67,2.11a10,10 0 0 1 -4,0.71a11.76,11.76 0 0 1 -4.88,-0.86a7.78,7.78 0 0 1 -3.27,-3.06a10.28,10.28 0 0 1 -1.38,-5.58q0,-4.55 2.41,-7a9.26,9.26 0 0 1 6.85,-2.44a9.25,9.25 0 0 1 5.44,1.41a8.17,8.17 0 0 1 2.94,4.3l-5,1.1a4.43,4.43 0 0 0 -0.55,-1.22a3.21,3.21 0 0 0 -2.71,-1.34a3.36,3.36 0 0 0 -3,1.54a6.7,6.7 0 0 0 -0.78,3.6q0,3 0.93,4.17a3.63,3.63 0 0 0 5,0.21a5.42,5.42 0 0 0 1.23,-2.64l0.01,0.01zm-30.26,-10.82l15.14,0l0,3.91l-9.41,0l0,2.91l8.77,0l0,3.74l-8.77,0l0,3.6l9.7,0l0,4.14l-15.43,0l0,-18.3zm-19.39,18.32l0,-18.32l9.43,0a13.79,13.79 0 0 1 4,0.45a4.3,4.3 0 0 1 2.23,1.66a5.06,5.06 0 0 1 0.85,3a5.18,5.18 0 0 1 -0.65,2.63a4.85,4.85 0 0 1 -1.74,1.77a6.82,6.82 0 0 1 -2,0.72a6,6 0 0 1 1.48,0.67a6.57,6.57 0 0 1 0.9,1a7,7 0 0 1 0.79,1.14l2.75,5.28l-6.41,0l-3,-5.58a4.33,4.33 0 0 0 -1,-1.41a2.43,2.43 0 0 0 -1.39,-0.43l-0.5,0l0,7.42l-5.69,0l-0.05,0zm5.69,-10.86l2.43,0a9.36,9.36 0 0 0 1.5,-0.25a1.49,1.49 0 0 0 0.91,-0.58a1.86,1.86 0 0 0 -0.2,-2.43a3.48,3.48 0 0 0 -2.11,-0.47l-2.52,0l0,3.73l-0.01,0zm37,-77.8l0,-9.2l39.86,0a4,4 0 0 1 4,4l0,41.9l-9.33,0l0,-36.72l-34.53,0.02zm-65.29,36.64l-9.28,0l0,-41.84a4,4 0 0 1 4,-4l39.5,0l0,9.29l-34.22,0l0,36.55zm34.14,67.79l0,9.25l-39.42,0a4,4 0 0 1 -4,-4l0,-41.88l9.28,0l0,36.66l34.14,0l0,-0.03z"/>
 </g>
</svg>